<svg id="Layer_global_projects" xmlns="http://www.w3.org/2000/svg" xmlns:xlink="http://www.w3.org/1999/xlink" viewBox="0 0 270 157.8"><style>.st0{fill:#AD2B38;} .st1{fill:#CCCBCB;}</style><symbol id="Dot" viewBox="-27.5 -27.5 55 55"><path class="st0" d="M27.5 0c0-15.2-12.3-27.5-27.5-27.5S-27.5-15.2-27.5 0-15.2 27.5 0 27.5 27.5 15.2 27.5 0z"/></symbol><path class="st1" d="M127 55.5c-.3.1-.7.2-1.1.3-.5.2-1 1-1.5 1.8-.7 1.1-1.4 2.3-2.5 2.3-.2 0-.3 0-.5-.1h-.1c-.2 0-.3.2-.3.5s-.1.4-.3.4h-.2c-.2-.1-.4-.1-.6-.1-.5 0-.8.2-.9.5 0 .3.2.7.8.9 1.4.4 1.7 2.3 1.4 3.4-.1.5-.6.7-1.4.7-.7 0-1.5-.2-1.8-.3-.5-.1-.8-.2-1.2-.2-1.4 0-1.4 1.1-1.4 2.2 0 .7 0 1.5-.3 2.1-.3.5-.2 1.1.1 1.6.6 1 2 1.7 2.9 1.7.3 0 .5-.1.7-.2.5-.3.9-.4 1.4-.5.6-.1 1.2-.3 1.9-1 .3-.4.3-.8.4-1.1 0-.4.1-.8.4-1.2.3-.3.5-.5.8-.7.5-.3.9-.6 1-1.4.1-.6.4-.7.8-.7.2 0 .4 0 .6.1.2 0 .5.1.7.1.2 0 .4 0 .6-.1.7-.4 1.2-.5 1.6-.5.6 0 .9.4 1.3.9.4.4.8 1 1.6 1.5.2.1.5.3.7.4.8.4 1.9 1 1.9 1.9 0 .8-.6.9-1.3.9-.5 0-1.1.1-1.3.5v.1c.5.5 1.1.8 1.8 1h.1c.4-.3 1.5-1.8 1.6-2.3 0-.2.1-.9.2-1l.1.1c.1.1.2.2.3.2.1 0 .3-.1.4-.3.1-.1-.1-.3-1.1-1-1.4-1.1-3.8-2.9-3.6-3.9 0 0 0-.1.1-.1 1 0 5.1 2.8 5.1 3.7.1 1.4 2 4 2.2 4.3.1.2.3.3.5.3.4 0 .9-.4 1.1-.7.2-.3.4-.6.3-.8 0-.2-.2-.4-.3-.7-.3-.5-.6-1.1-.4-1.5.2-.3.6-.4 1.4-.3.9.1.9.9 1 1.6 0 .4.1.9.3 1.1.6.8 1.4 1.9 2.6 1.9.4-.1.8-.3 1.2-.5.4 0 .6.1.9.3.2.1.5.2.7.2.2 0 .4-.1.7-.2.5-.3.9-.3 1.1 0 .4.5.1 1.9-.1 2.6-.5 1.4-.8 1.8-1.8 1.8-.3 0-.6 0-1.1-.1-.7-.1-1.3-.1-1.9-.1h-.3c-1.1 0-2.1 0-3.3-.4-.2-.1-.3-.1-.4-.1-.7-.3-1.3-.5-1.8-.5-.8 0-1.2.5-1.4 1.7 0 .3-.3.4-.7.4-.9 0-2.5-.8-2.7-1.1-.4-.9-1.4-1.1-2.3-1.3-.7-.1-1.4-.3-1.9-.7 0-.3 0-.6.1-1s.1-.8.1-1.1c-.1-.7-.7-1-1.8-1-.7 0-1.5.1-2.2.2-.3 0-.6.1-.8.1-1.4.1-3.2.4-4.7 1.4-.2.1-.4.2-.7.2-.4 0-.9-.2-1.3-.3-.4-.1-.8-.3-1.2-.3h-.2-.1c-.3.9-.9 1.4-1.5 1.8-.4.3-.9.6-1.2 1.1-.4.5-.5 1.1-.6 1.6-.1.7-.2 1.4-.9 1.9-1.6 1.2-2.7 2.1-3.7 3.8-1 1.6-.9 2.3-.8 3.4 0 .4.1.9.1 1.5s-.2 1.2-.4 1.7c-.3.8-.5 1.6-.2 2.4.5 1.2.9 1.7 1.7 2.5l.6.6c.4.5.8.9 1.1 1.4.7.9 1.3 1.7 2.5 2.6.7.5 1.3.8 1.8.8.3 0 .7-.1 1-.2.4-.1 1-.2 1.6-.2h1.8c.7 0 1.2-.1 1.7-.4.8-.4 1.4-.6 2-.6.8 0 1.4.5 2.2 1.3.3.3.5.4.9.4.2 0 .5 0 .7-.1.2 0 .5-.1.7-.1.3 0 .5.1.6.2.9.7.6 1.7.2 2.7-.2.6-.4 1.2-.3 1.7.1.9.8 1.7 1.5 2.4.5.5 1 1.1 1.3 1.7.4 1.1 1.2 3.5 1 4.6-.1.7-.5 1.3-.8 1.9-.4.7-.8 1.5-.9 2.5-.1 1 .5 2 1 2.9.3.6.6 1.1.8 1.6.2.6.3 1.3.4 2l.3 1.8c.2.7.6 1.4 1 2.1.5.8.9 1.6 1.1 2.6 0 .2.1.5.1.7.1 1 .2 2.1 1.5 2.1.2 0 .3 0 .5-.1.6-.1 1.2-.2 1.8-.2 1-.1 2-.2 2.9-.5 1.8-.7 2.9-2.2 3.9-3.5.4-.5.8-.9 1.3-1.4.3-.4.3-.8.3-1.3 0-.4.1-.8.3-1.1.4-.6.8-.8 1.2-.9.6-.3 1.1-.5 1-2-.2-2.2 0-2.4 2-3.8.2-.2.5-.3.8-.5 1.1-.7 2.1-1.3 1.8-2.9 0-.7 0-1.3.1-2 0-.5-.2-.9-.4-1.2-.2-.3-.3-.5-.4-.9-.5-3.5.8-5 3.2-7.4.5-.5 1.1-1 1.7-1.6 2.3-2.1 4.9-4.4 4.8-7.8 0-.3-.5-.3-.6-.3-.5 0-1.2.1-2 .3-.9.2-2 .3-2.7.3-.7 0-1.1-.1-1.2-.4-.1-.2-.1-.5.1-1 3.5-.4 8.4-2.8 10.7-5.3l.1-.1c.7-.7 2.4-2.5 2-3.5-.3-.7-.8-.8-1.3-1-.3-.1-.7-.2-.9-.5-.2-.1-.3-.4-.4-.7-.1-.4-.2-.7-.5-.8-.8.3-1.3.7-1.8 1-.3.3-.6.5-.9.5-.3 0-.7-.4-1.2-1.4h-.1-.1c-.1.1-.1.1-.2.1-.8 0-2.1-2.1-2.2-3.1 0-.5.2-.5.3-.5h.3c.6 0 .8.4 1.1.9.2.4.5.9 1 1 .4.1.7.3 1 .4.7.3 1.1.5 1.9.5.3 0 .7 0 1.2-.1.2.1.3.3.4.6.2.3.4.7.8.7.5 0 .9.1 1.4.2.6.1 1.2.2 1.9.2s1.5-.1 2.2-.1c.3 0 .6-.1.9-.1h.1c.6 0 .9.4 1.2.8.3.4.6.7 1.1.9.1.2.3.3.4.4.3.2.5.4.3.8v.1c.4.5.8.8 1.3.8.2 0 .4-.1.6-.1.2 0 .3-.1.5-.1s.3 0 .4.1c.3.2.5 1.4.6 2.4.1.6.2 1.1.3 1.4.5 1.3 1.1 2.5 1.7 3.7.3.7.7 1.3 1 2 .4.9.9 1.4 1.5 1.4 1 0 1.8-1.8 1.9-3.4v-.7c0-1.3.1-1.7 1.3-2.8.1-.1.3-.3.5-.4 1.1-1 2.8-2.4 3.2-3.5.2-.5 2.7-1.6 3.2-1.6.2.2 2 2.6 2.1 2.7.1.2.3.7.4 1.3.4 1.1.6 1.8.7 1.9.3.2.5.3.7.3.4 0 .7-.2.9-.4.2-.1.3-.2.4-.2.2 0 .4.4.7 1.2.5 1.5 1.1 3 .7 4.7-.2.9.4 1.7 1 2.6.4.6.8 1.2 1 1.8.3 1.3 1.2 2.3 2.4 2.8.3.1.5.1.6-.1.2-.3-.1-1-.3-1.6-.1-.3-.2-.6-.2-.7.1-1.1-.7-1.6-1.4-2.1-.4-.3-.8-.6-1.1-.9-1.3-1.7-1.1-2.7-.5-4.7.1.1.2.1.3.2.9.5 1.8 1 2.3 1.8 0 .1.4.4.8 1 .3.3.6.6.6.7h.1c.6 0 3-2 3.2-2.5.5-1.2-.1-3-.8-3.8l-.8-.8c-.8-.8-1.8-1.8-1.7-2.6.1-.5.4-.9 1.2-1.2.3-.2.5-.2.7-.2.3 0 .4.2.6.4.2.2.3.5.8.5 0 0 .1 0 .1-.1.2-.2.9-.7 1.3-.9.2-.1.3-.2.3-.2.5-.3 1.1-.5 1.6-.7 1.4-.6 2.8-1.1 3.6-2.9.1-.2.2-.4.3-.7.8-1.8 1.7-3.7.7-5.7-.1-.3-.5-.7-.8-1.3-.7-1.1-1.8-2.5-1.5-3.1.1-.2.5-.6.9-.9.5-.4 1-.8.9-1.1-.2-.5-.5-.8-.8-.8-.4 0-.8.3-1.2.5-.3.2-.5.3-.7.4-.2-.2-.4-.4-.6-.5-.3-.2-.5-.4-.7-.6-.1-.1-.2-.3-.2-.4 0-.1.2-.2.4-.4.2-.1.5-.2.5-.5.1-.4.9-1.7 1.5-1.7h.1c.3.2.3 1.1.3 1.7v.7h.1l.1-.1c.5-.4 1.4-1.1 2-1.1.4 0 .7.3.8 1v.2c0 .5.1.9.9 1 .6 0 .8.7.8 1.3 0 .2 0 .3.1.5.2.8.7 1.7 1.3 1.7.4 0 .8-.3 1.2-1 .8-1.3-1.2-3.8-2.3-4.5-.1-.1-.2-.2-.2-.3 0-.3.3-.6.6-.9.4-.4.8-.8.6-1.3-.2-.5-.3-.9-.1-1.2.3-.5 1.1-.7 1.8-.8.3 0 .5-.1.7-.2 1.8-.6 2.5-4.9 2.8-6.7v-.2c.2-1.1-.1-2.1-.3-3.1-.2-.8-.4-1.7-.4-2.6 1.5 1.2 2.1 3.8 2.6 5.9.2.7.3 1.3.5 1.8h.1l1-.8V57c-.1-.4-.4-.7-.6-1-.3-.4-.5-.7-.6-1.2-.1-.5 0-.8.2-1.1.2-.4.4-.8 0-1.4-.4-.7-.8-1.5-1.2-2.3-.6-1.2-1.3-2.5-2.1-3.5h-.1-.1c-.2.8-.2 1.5-.1 2.2-.4-.8-1.3-1.9-2.2-1.9h-.3c-.1 0-.3.2-.5.3-.3.2-.6.5-.9.5-.2 0-.4-.2-.6-.6-.1-.3-.5-.4-.8-.4-.2 0-.5-.1-.5-.2v-.3c1-2 1.5-4.2 2-6.1-.2-1.4 1.4-1.7 2.8-1.9.4-.1.8-.1 1.1-.2.3-.1.5-.3.7-.5.3-.3.5-.5 1-.4.3 0 .6.2.8.3.3.2.5.3.8.3.1 0 .3 0 .4-.1 0 0 .1 0 .1-.1.5-.2 1.1-.5 1.1-.9 0-.1-.1-.3-.3-.4-.7-.4-.5-1.4-.3-2.2.1-.4.2-.8.1-1.1 0-.5 0-.8.2-1 .1-.1.2-.2.4-.2.6 0 1.6.7 2.2 1.1.3.2.5.3.6.3 0 0 .1 0 .1-.1.1-.5.1-1 .2-1.5.1-.8.2-2.1.4-2.1.1 0 .3.2.8 1.8s-.1 3.5-.6 5.4c-.4 1.5-.9 3.1-.7 4.5.1 1.4 3.8 7.7 4.8 7.7.1 0 .2 0 .2-.1.3-.5.5-2.6.5-3.2 0-1.3 0-1.3.5-2.2.1-.1.1-.3.2-.4v-.1c-.1-.1-.2-.2-.3-.4-.3-.4-.7-.9-.7-1.4 0-.3.2-.4.3-.6.1-.1.3-.3.3-.4 0-.1-.1-.3-.3-.5-.3-.3-.4-.7-.6-1-.1-.4-.3-.7-.5-.9-.4-.3-.7-.4-.8-.4-.2-.1-.2-.1-.4-1.3v-.3c-.2-1.5-.2-1.9 1.3-2.2.2 0 .4-.4.7-.9.1-.1.2-.3.2-.3.1-.1.3-.2.4-.2.2 0 .4.1.7.2.2.1.5.3.7.3h.2V32c.2-1.7.7-5.5 2.7-5.5h.2c.4.1.5-.1.5-.2.1-.8-3.1-3.5-3.7-4 .6-.3.9-.6 1-1 .2-.6-.3-1.2-.8-1.8-.4-.5-.8-1.1-.6-1.4.2.1.6.3 1 .3.3 0 .6-.1.7-.4 0 0 .1-.1.3-.1.3 0 .6 0 1.1.1.4.1.9.1 1.3.1s.6-.1.7-.2c.1-.1.1-.2 0-.3-.3-1.3-1.5-5.5-3.1-5.5-.5 0-1 .4-1.4 1.2v.1c.4.6.4.6.4 1l-.1-.1c-1.8-1.1-2.5-1.6-4.9-1.8-.8-.1-1.6-.2-2.3-.4l-1.5-.3h-.6c-.8 0-1.6.2-2.3.4-.5.2-1.1.3-1.7.4 0 0-.1 0-.1.1 0 .4.4.8.8 1.2.5.5 1 1 .7 1.4-.1.1-.2.2-.3.2-.4 0-.9-.6-1.6-1.9 0-.1-.1-.1-.1-.1l-.1-.1c-.2 0-.6.3-1.3.8-1.2.8-2.7 1.8-3.9 1.9-.3 0-.5-.1-.6-.2-.3-.2-.5-.6-.7-.9-.2-.4-.5-.9-1.1-1.1-.2-.1-.5-.1-.8-.1-.8 0-1.7.4-2.2.7-.6.4-1.1.5-1.6.5-.4 0-.8-.1-1.3-.2-.3-.1-.6-.2-1-.2-.4-.1-.6-.5-.9-.8-.3-.4-.5-.8-1-.8-.3 0-.7.2-1.1.5-.2.1-.5.2-1 .2-.4 0-.8 0-1.2-.1-.4 0-.8-.1-1.2-.1-.7 0-1.1.1-1.2.4-.3.9.1 1.5.6 2.2.1.2.3.4.4.6-.7.2-.7.3-.7 1-.1 0-.3.1-.5.1h-1c-.4 0-.8-.1-1.2-.1-.6 0-1 .1-1.2.3-.1.4 0 .8.1 1.1.1.3.1.6.1.6h-.1c-.2 0-.5-.2-1.1-.5-.7-.4-1-1-1.4-1.6-.4-.7-.9-1.5-1.8-1.9-.4-.2-.8-.2-1.4-.2h-1.4c-.3 0-.4.1-.5.2-.2.2-.1.5-.1.8 0 .2.1.5 0 .6-.1.3-.5.5-1.1.5-.6 0-1.2-.1-1.9-.3-.7-.1-1.3-.2-1.8-.2-.3 0-.5 0-.6.1-.1 0-.4.1-.8.1-1.4.1-2.6.3-2.7.7 0 .1 0 .2.2.4.1.1.1.2.1.3-.1.4-.6.8-.9.9-.1 0-.1 0-.2-.1-.3-.4.3-2 .5-2.7.1-.2.1-.3.1-.3.2-.9.7-2.7-.1-3.7-.3-.4-.7-.6-1.4-.7-.3 0-.5-.2-.8-.4-.3-.2-.5-.3-.9-.4h-.2c-.6 0-.9.5-1.1.8-.2.3-.3.5-.5.5-.1-.4-1.7-1.6-2-1.8-.2-.4-.7-.6-1-.6-.5 0-.8.3-1 .7-.1.3 0 1 .1 1.7.1.5.2 1.3.1 1.4-.4.2-.5.5-.7.8-.1.3-.3.5-.5.7-.1.1-.2.1-.2.1-.1 0-.2-.1-.3-.2-.1-.1-.2-.2-.4-.2-.1 0-.3.1-.4.2-.5.5-1.4 1.5-2 1.8-.6.4-.9 1-1.1 1.5-.2.5-.4.9-.7 1.2v.1c.5.7 1 1 1.6 1.5-.8.2-3.2.7-3.6 1.5-.1.2-.1.3 0 .5.6 1.2 1.5 2 2.8 2.6-.4-.1-.8-.3-1.3-.5-.8-.3-1.6-.6-2.1-.6-.3 0-.4.1-.6.2-.1.1 0 .2.2.5.1.2.4.6.4.7h-.1c-.2 0-.4-.1-.5-.1-.1 0-.3 0-.4.2-.1.2.4.7 1.2 1.2h-.3c-.9 0-1.1-.7-1.4-1.5-.1-.4-.3-.7-.4-1h-.1l-.1.1c-.5 1.7-.2 2.2.4 3.3l.3.6c.2.4.2.7.3 1 .1.4.1.9.5 1.4.1.1.2.2.4.2s.4-.1.6-.2c.2-.1.3-.1.4-.1 0 0 .1 0 .1.1-.1.3-.3.5-.6.7v.1c0 .6.1 1.3.4 1.8 0 1-.5 2.3-1.5 2.3-.3 0-.6-.1-.9-.4.1-.1.2-.1.2-.1.1 0 .2 0 .3.1.1 0 .2.1.3.1.2 0 .4-.1.5-.5.5-1.6.2-2.2-.3-3.1-.2-.3-.4-.7-.6-1.1-.2-.4-.3-.9-.5-1.5-.6-2-1.5-4.8-3-4.8-.6 0-1 .4-1.2 1.1-.5 1.7.3 5.1 1.4 5.9.2.1.9 1 .9 1.2 0 0-.1 0-.3-.2-1.1-.8-2.2-1-3.3-1.1-.7-.1-1.4-.2-2-.5-1-.4-1.4-.5-1.5-.5-.1 0-.1 0-.1.1s.1.1.4.4c.5.4 1.5 1.1 1.5 1.7-.2 0-.6.2-1.4.5-1 .4-2.3.9-2.5.9-.4-.1-.5-.3-.6-.4 0-.1-.1-.2-.2-.2-.2 0-.4.1-1.1.6-.3.2-.6.6-1 1-.6.7-1.3 1.5-1.8 1.5-.1 0-.2 0-.2-.1-.4-.3-.3-.7-.2-1.1.1-.3.2-.7 0-.9-.2-.2-.5-.3-1-.3-.2 0-.4.1-.5.2-.2.3 0 1 .2 1.8.2.6.4 1.3.3 1.5-.3.1-.5.1-.7.1-.4 0-.7 0-1.3.6-.5.5-.4.9-.3 1.3.1.3.1.5 0 .7-.1.1-.2.1-.3.1-.2 0-.5-.2-.8-.3-.3-.2-.6-.3-.8-.3-.2 0-.4.1-.4.2-.1.3.3.7.7 1.1.1.1.2.3.3.3-.1.1-.2.1-.4.1-.8 0-1.8-1.7-2.5-2.8-.2-.4-.5-.7-.6-1 .2.1.4.1.7.2.8.3 1.7.5 2.5.5.4 0 .8-.1 1.1-.2.8-.3 1-.8 1-1.1 0-.8-.7-1.6-1.4-2-.2-.1-.4-.2-.6-.4-1-.6-2.1-1.3-3.2-1.3h-.3-.1c-.5 0-2.3-.4-2.6-.7.1-.1.2-.1.3-.2.2-.1.4-.3.3-.5-.2-.3-1.9-1.2-2.3-1.2h-.1s-.2.1-.6.2c-.5.2-1.4.4-1.5.5h-.1c-.3.4-1.5.9-2.5 1.3s-1.9.8-2 1.1v.1c.1.2.2.5.2.8-.1.2-.3.2-.5.2s-.4 0-.6.3v.1c.1.1.2.1.4.2-.4.4-1.1 1.8-2 4.3v.1c-.5 1.4-1.5 2.2-2.6 2.9-.8.6-1.5 1.2-2.1 2-.4.7-.2 3.1.4 4.3.4.7.9 1 1.5.7.2-.1.4-.3.6-.5.4-.4.9-.8 1.2-.8.2 0 .3.1.4.4.1.3.2.6.4.9.4.8.8 1.7.7 2.3-.3 0-.5.2-.6.3-.1.2-.1.4 0 .6h.4c.2 0 .3-.1.4-.2.1-.1.1-.3.1-.6.3.4.7.6 1 .6 1 0 1.6-1.8 2.1-3.2.2-.6.4-1 .5-1.2.9-1.1.5-1.4 0-1.8-.3-.3-.6-.5-.6-1.1-.1-1.4.4-1.9 1.1-2.6.3-.3.7-.7 1-1.2.3-.4.4-.9.4-1.3.1-.7.2-1.2 1-1.2.2 0 .5 0 .8.1.2 0 .3.1.4.3.2.5-.7 1.5-1.4 2.3-.6.7-.9 1.1-.9 1.3-.1 1.7.4 3.6 2.1 3.8.4 0 .9-.2 1.5-.4.5-.2 1.1-.4 1.6-.4.4 0 .7.2.9.5-.5.7-1.1.7-1.8.7-.4 0-.8 0-1.3.2-.4.1-.6.3-.7.5-.1.3.1.7.3 1.1.2.3.3.7.3 1 0 .3-.1.3-.2.3s-.3-.1-.4-.1c-.2-.1-.5-.2-.7-.2-.3 0-.5.2-.7.4-.5 1.1-.1 1.5.4 2 .2.2.5.5.6.8-.2.3-.6.4-1 .4s-.8-.1-1.3-.3c-.4-.1-.8-.2-1.1-.2h-.1c-.6.2-1.2.4-1.7.8-.3.2-.5.3-.7.3-.2 0-.3-.1-.5-.2s-.4-.2-.8-.2h-.1c-.3 0-2-.3-2.1-.5 0 0 0-.1.2-.1.4-.1.4-.8.4-1.3 0-.6-.2-1.6-.4-1.7-.3-.1-.5 0-.7.3-.4.6-.7 1.9-.6 2.3.2.8.3 1.2.1 1.5.4 0 0 0-.5.2zm25.9 32.6c-.5-1.3-.8-1.9-1.5-3.1v-.1c-.6-1.1-1.5-2.6-1.8-3.9.3-.2.5-.3.7-.3.2 0 .4.2.6.6 0 0 .1.1.2.3.3.5.6.9.9 1.3 2.3 3.5 4.5 6.7 5.8 10.9-1.8-1.3-4-3.5-4.9-5.7zm22.3-59.7c-.1 0-.1 0 0 0-.3 0-.7-1-.9-1.9.8 1.1 1 1.8.9 1.9zM1.5 41.8s0 .1 0 0v.1c.3.1.6.1.8.1 1.8 0 4-1.4 5.7-2.6.5-.3.9-.6 1.3-.8.7-.3 1.4-.7 2-1.3.2-.4.3-.8.3-1.2.3-.3 2-1.4 2.5-1.6-.1.6-.8 1.6-1.1 2.1-.1.1-.1.1-.1.2v.1h.3c.5 0 1-.2 1.4-.4.4-.2.9-.4 1.3-.4.5 0 .6-.5.7-.9 0-.2.1-.5.2-.6.1 0 .2 0 .3.1.5.1.9.2 1 .9v.1c.6.3 1.2.8 1.8 1.2.6.4 1.2.9 1.9 1.2 0 .4.4 1.7.9 2.3.3.4.6.4.8 0 .1.3-.1.7-.2 1-.2.6-.5 1.3.3 2.1.1.4.4.7.7.7.3 0 .6-.2.7-.7.2.4.2 1.3.1 2.2 0 1.4-.1 2.8.6 3 0 .1.1.5.3 1.6.2 1 .5 2.5.5 2.8-.2 0-.4-.1-.5-.3-.2-.2-.4-.3-.6-.3h-.2v.1c0 .7.4 1.3.9 1.9.6.7 1.1 1.3.7 2.2-.3.7-.4 1.5-.6 2.4-.1.8-.2 1.7-.5 2.4-1.3 3.1-1.2 6.5.3 10.6.3.7.8 1.1 1.3 1.4.6.4 1.2.8 1.4 1.8.1.6.5 1.3.9 2s.8 1.4.8 2c0 .5-.1.7-.2.9-.1.2-.1.2.5.7l.3.3c.1 0 .2.4.4.7.5 1.1 1.2 2.7 1.9 2.7.1 0 .2 0 .3-.1.4-.3-.3-1.6-1.3-3.7-.9-1.7-1.8-3.6-1.7-4.4.9.3 1 .8 1.2 1.6.1.4.2.8.5 1.3.9 1.4 1.8 2.7 2.8 4.1l.2.3c.1.1.1.2.2.2.4.6.9 1.2 1.1 2 .1.4 0 .7 0 1-.1.5-.2 1 .5 1.5 1.7 1.2 3.7 2.2 5.8 3 .4.1.7.2 1.1.2h1c.4 0 .9.1 1.6.7.5.4 1.4.7 2.2.9 1 .3 2 .6 2.3 1.1 1.2 2.5 3.2 3.5 5.5 4.4h.1c.2-.1.4-.4.5-.7.2-.4.3-.7.8-.6.2 0 .3.1.4.3.6.8.8 2.7.7 3.2.3.9-.5 1.7-1.3 2.4-.3.3-.6.6-.8.9-.4.7-.7 1.5-.8 2.3 0 .3.2.4.4.5.2.1.3.2.3.4-1.6 1.5.1 4 1.6 6.2.6.9 1.2 1.7 1.5 2.4.6 1.4 1.6 2 2.8 2.7.4.2.8.5 1.2.8 1.6 1.2 1.6 2.8 1.6 4.6v1.2c0 .7 0 1.4.1 2.2.1 2.8.2 5.8-.3 8.3-.1.5-1.2 8.3-.1 8.5.4.1.5-.4.5-.8 0-.3 0-.5.2-.5h.1c.3.1.2 2 .1 2.8v.7l-.3.3c-.4.3-.9.8-.9 1.1 0 .1.1.2.3.3.8.2.7 1 .5 1.9-.1.5-.2.9 0 1.3.3.8 1.6 3.6 2.3 4.2-.1.3 0 .5.2.8.2.2.5.4.7.4.1 0 .4-.1.5-.4.2.1.3.2.4.2.2 0 .3-.2.4-.4.1-.3.2-.4.4-.3.2.1 0 .6-.1 1s-.2.7-.1.9c.1.1.3.1.5 0 .1 0 .3 0 .5.1.4.1 1 .2 1.5.2.6 0 .9-.1 1.2-.3.2-.2.2-.4.2-.7v-.1c-1.9-1.2-2.6-1.9-3.3-4-.4-1.1.1-1.8.6-2.4.6-.8 1.2-1.6-.4-2.9-.5-.5.4-1.7 1.1-2.8.5-.7 1-1.4 1-1.7 0-.3-.3-.4-.6-.5-.3-.1-.7-.2-.7-.7.2-.4.5-.4 1 0 .3.1.6 0 .8-.2.4-.4.3-1.1.3-1.7v-.3c.4-.3.9-.3 1.4-.3.7 0 1.5-.1 2-.8.6-.9.4-1.4 0-2-.2-.4-.4-.7-.4-1.2.5-.1.9-.1 1.2-.1 1 0 1.4 0 2.4-1.6.2-.4.5-.8.8-1.2.4-.6.8-1.2 1.2-1.9.4-.8.5-1.4.5-2 0-.4.1-.9.3-1.4.6-1.7 2.3-2.2 3.8-2.6.4-.1.9-.2 1.3-.4 2.5-1 2.5-6.4 2.4-8 0-.6.9-1.5 1.7-2.3.5-.5 1-1 1.2-1.4 1.2-2.3-1-3.6-2.6-4.6-.2-.1-.4-.2-.5-.3-.6-.4-1.2-.4-1.8-.5-.3 0-.7-.1-1-.2-.4-.1-.8-.3-1.2-.4-.4-.1-.7-.3-1.1-.4-1-.2-2.1-.5-2.9-1-.1-.1-.3-.1-.5-.1-.3 0-.6.1-.9.2-.3.1-.6.2-.8.1.1-.2.3-.3.4-.5.5-.5 1-1 .4-1.6-.4-.5-.6-.9-.9-1.3-.5-.9-1-1.6-2.4-2.1-.5-.2-.9-.2-1.4-.3-.8-.1-1.5-.2-2.3-1-.6-.7-2.2-2.1-3.2-2.4-.1-.4-1-.4-2-.4-1.1 0-2.4 0-2.9-.4s-.8-.6-1-.6c-.2 0-.3.1-.5.3-.2.2-.4.4-.8.5v-.5c0-.3 0-.6-.1-.7-.1-.1-.3-.1-.6.1-.4.4-.9.5-1.4.7-.4.1-.8.2-1.1.4-.4.2-.7.7-1.1 1.3-.2.3-.4.5-.5.7-.3-.8-1.3-.9-2.3-1-1-.1-2.1-.1-2.5-.7-.3-.4-.3-.9-.1-1.7.3-1.2.3-2 0-2.3-.3-.4-.8-.4-1.4-.4-.7 0-1.5-.1-2.4-.5 0-.1.1-.3.2-.6.5-1.2 1.5-3.5 1-4.2-.1-.2-.3-.2-.5-.2-1 .2-1.7.9-2.4 1.6-.8.8-1.5 1.5-2.5 1.5-.3 0-.5 0-.8-.1-.8-.3-1.4-.8-1.8-1.6-1-2.1-.2-5.4.4-6.9.4-.9 2.5-1.7 3.6-1.7h.3c.6.2 1.3.4 1.9.5.4 0 .7-.3.9-.6.3-.3.6-.7 1.2-.6 3 .2 3.2.7 3.9 2.6.1.4.3.8.5 1.2.3.6.5.9.8.9.1 0 .2-.1.3-.2.3-.4.5-1.3.5-2 0-.3-.1-.7-.2-1.1-.3-1.2-.6-2.8.5-3.3.9-.4 1.7-1.1 2.5-1.7.2-.1.3-.3.5-.4.6-.4 1.3-3 1.3-3.4.8-.3 1.4-1 1.8-1.9.4-.9 1.1-1.1 1.8-1.4.5-.2 1-.4 1.5-.7v-.1c-.1-.5 0-1.1.5-1.6.8-.9 2.3-1.7 3.4-1.7h.3c-.4.5-.6.8-.5 1.1.1.1.2.2.4.2 1.1 0 4.2-1.6 4.7-1.9v-.1c0-.1 0-.2-.1-.2-.1-.3-.1-.6-.4-.7H76c-.2.1-.4.2-.5.3-.4.2-.7.4-1 .4-.3 0-.7-.2-1.4-.8 0-.2.1-.6.2-1 .2-.6.3-1.1.2-1.3-.1-.3-.3-.5-.7-.5-.3 0-.5.1-.8.2-.3.1-.5.2-.7.2-.1 0-.2 0-.3-.1 1.3-.9 1.8-1.2 2.9-1.2.3 0 .7 0 1.2.1h.6c1.1 0 1.9-.3 2.7-.7.5-.2 1-.4 1.6-.6-.8.8-1.3 1.8-1.9 2.7-.2.4-.5.8-.8 1.3v.1c.1 0 .1.1.1.1.1 0 .1.1.1.1h.2c1 .1 2.2.2 3.1.5 0 0 .8.2 1.3.2.1 0 .3 0 .3-.1s-.1-.3-.4-.5c-.7-.5-.6-.9-.5-1.2.1-.2.1-.3 0-.5s-.4-.3-.9-.5c-.2-.1-.4-.2-.5-.3-.2-.3 0-.7.1-1.1.1-.3.2-.6.1-.8 0-.1-.1-.1-.2-.1.5-.3.7-.7.7-1.2.1-1-1.1-2.1-2-2.9-.3-.3-.6-.5-.8-.7-.7-.8-.8-2-.8-3.1-.1-1.2-.1-2.5-1-3.5h-.1c-.3.1-.7.6-1.2 1-.6.6-1.3 1.3-1.8 1.3-.1 0-.2 0-.3-.1-.2-.2-.3-.8-.3-1.7 0-1.1-.7-2.6-1.7-3.6-.5-.5-1.3-1.2-2.3-1.2-.4 0-.7.1-1.1.3-.6.4-.6 1.4-.6 2.3 0 .6 0 1.1-.1 1.4-.2.4-.3.6-.5.8-.4.7-.4.7-.3 1.6 0 .2.1.5.1.9.1 1.4-.7 1.9-1.6 2.4-.7.4-1.3.7-1.3 1.5v.7c0 1.2.1 2.8-1.3 2.9-.1-.2-.2-.3-.3-.5-.5-.8-.9-1.5-.5-2.4.4-.8.5-1.3.3-1.6-.2-.3-.6-.5-1.2-.5-1-.1-1.7-.8-2.4-1.5-.8-.8-1.5-1.6-2.8-1.7v-1.4c0-.4-.3-.6-.5-.7-.2-.1-.3-.2-.4-.4-.2-1.1.7-2.6 2.8-4.5.2-.2 1.1-.8 2.3-1.5 2.5-1.6 3.7-2.4 4-2.7.1.2-.1.7-.4 1.1-.3.5-.7 1-.5 1.4.3.5.5.8.8.8.2 0 .4-.2.6-.4.3-.2.6-.5 1-.5.6.5 1 .7 1.3.7.1 0 .2-.1.2-.1.1-.2-.2-1-.9-2.1-.6-1-1.2-2.2-1.2-2.7.4.1.9.2 1.5.2.7 0 1.8-.1 2.3-.8.3-.4.2-.9 0-1.5-.1-.3.1-.5.5-.8.2-.1.3-.2.4-.3.5-.8-.4-1.6-1-2.1.1 0 .3.1.5.1.6.1 1.4.3 2 .3.5 0 .8-.1 1-.3h.1v-.1-.1-.1c.1 0 .3.4.7 1.6.1.4.4.8.8 1.3.5.6 1 1.3.9 2-.1.5-2.1 3.2-2.6 3.2h-.9c-.2 0-.5-.1-.7-.1-.4 0-1 .1-1.1.8-.1.2 0 .5.1.6.2.2.6.3 1.2.3.3 0 .7 0 .9-.1h.4c.8 0 .9.7 1.1 1.4.1.3.1.5.3.8.6 1.1 1.9 2 2.6 2 .2 0 .4-.1.4-.2.2-.3 0-1-.6-2l1.8 1.3h.1c1-.7.5-2 .1-3.2-.3-.8-.5-1.5-.3-1.8.1-.1.2-.2.5-.3.3.3.5.7.7 1 .3.5.5.9.9.9.3 0 .8-.3 1.4-1 .3-.4.5-.7.5-1.1 0-.7-.7-1.3-1.5-2-.6-.5-1.2-1-1.5-1.6l.1-.1c.7-.7 1.4-1.7 1.2-2.2 0-.1-.1-.2-.3-.3 0-.3-1.6-1.6-2.1-1.8.1-.3.4-1 .2-1.2-.1-.2-.3-.1-.7.2-.1 0-.1.1-.2.1-.3 0-.5-.7-.7-1.4-.2-.6-.3-1.1-.5-1.3.2-.3.3-.7.3-1.1-.2-1-1.2-1.4-2.1-1.4-.2 0-.4 0-.5.1-.1-.2-.3-.3-.6-.3-.9 0-2.4.9-2.9 1.3v.1c0 .4-.2.8-.4 1.2-.1.2-.3.5-.4.8 0-.7.1-1.3.4-1.9.1-.3.5-.5.8-.8.4-.3.9-.7.9-1.1 0-.2 0-.4-.1-.5-.1-.1-.2-.1-.3-.1-1 0-3.7 2.3-3.7 2.4l-.1.1c-.4.5-1.1 1.4-.9 1.9 0 .2.3.3.5.5.2.1.5.3.5.4-.7.1-1 .2-1.1.4.4.2 1.2.7 2 1.2.4.3.8.5 1.1.7h-.1c-.8 0-1.2 1-1.7 2-.4.9-.9 1.8-1.5 1.8h-.2c-.5-.7-.2-1.4 0-2 .1-.3.2-.5.1-.6-.1-.2-.4-.1-1.2.2-.3-1.1-.5-5.5.6-7.1.2-.4.5-.6.8-.6 1-.1 2.6-.9 2.7-1.8.1-.5-.3-.9-1.1-1.2-.3-.1-.6-.2-.9-.2-1.1 0-1.5 1.2-1.9 2.4-.3 1-.6 1.9-1.3 2 0-.4.2-.7.3-.9v-.1c.2-.5.2-1.1-.1-1.6.7-.8 1-1.3.9-1.7-.1-.3-.6-.4-1.5-.4-.8 0-1.4 1.2-1.7 1.8 0 .1-.1.1-.1.2-.3-.2-.5-.3-.7-.3-.3 0-.5.2-.6.4-.1.3-.1.7.2 1.1.3.4.4.7.5 1.2.1.3.1.6.3.9 0 .1.1.1.2.1.3 0 .8-.2 1.3-.3.3-.1.6-.2.7-.2-.2.7-.6 1.2-1 1.6-.8.9-1.4 1.6.1 3.1-.1.2-.2.5-.3.8-.2.7-.4 1.3-1.2 1.3-.1 0-.3 0-.4-.1l-.2-.2c-.2-.2-.3-.3-.4-.5.6.2 1.1.1 1.3-.4.2-.6-.1-1.7-.7-2.2H59c-.2.1-.3.3-.5.4-.4.3-.7.6-1.2.8v.1l.9 1.1c-.4 0-.7.3-.9.5-.2.2-.4.4-.7.4h-.2c-.4-.1-.7-.2-.9-.2-.5-.2-.8-.3-1.5-.8-.3-.2-.5-.7-.6-1.1-.2-.5-.4-.9-.6-1h-.6c-.8 0-1.3.3-1.3.7 0 .1 0 .1.1.2s.4.1.7.1h.3c-.4.2-.9.4-1.3.7-.1.1-.2.4-.2.6-.1.4-.1.7-.4.8-.2-.2-.3-.5-.3-.8 0-.4-.1-.8-.4-1-.1-.1-.4-.1-1-.1-.8 0-2 0-2.2-.4-.1-.1-.1-.2 0-.3.1-.2.4-.4.6-.6.3-.2.6-.5.6-.7 0-.2-.3-.5-1-.7-1.1-.4-1.8-1-2.3-1.9-.2-.4-.6-.6-1-.6-.2 0-.5.1-.6.1-.1 0-.2.1-.3.1h-.1v-.3c.1-.2.1-.4-.1-.7h-.1l-1 .6c-.1-.3-.1-.6 0-1 0-.5.1-.9-.2-1.4h-.1l-.1.1c-.2.6-.4.9-.6.9-.2 0-.4-.2-.6-.4-.2-.1-.3-.3-.5-.3h-.2c-.3 0-.8.2-1.2.3-.5.2-.9.3-1.3.3-.3 0-.5-.1-.7-.3h-.1c-.2.1-.4.2-.6.4-.4.3-.9.6-1.2.6h-.1c-.4-.3-.7-.7-.9-1.2-.2-.4-.5-.9-1-1.3-.4-.3-.6-.5-.9-.7-.5-.4-.9-.8-1.8-1.2-.6-.3-2.6-1.4-3-1.8-.2-.2-.4-.6-.7-.9-.2-.3-.4-.6-.6-.8-.1-.1-.2-.2-.2-.3-.6-.7-.6-.7-1.1-.6-.2 0-.5.1-.9.1-2.2.1-3.9.7-5.2 1.7-.4.3-1 .4-1.7.6-1 .2-2.1.4-2.4 1.1-.2.3-.2.8.1 1.3.2.5.2.9.2 1.3 0 .5 0 1 .4 1.6.2.3.3.6.1.9-.2.3-.6.6-1.1.6-.5 0-.5-.4-.6-.8 0-.3-.1-.7-.5-.7h-.1c-.1 0-.3.1-.5.1-1 .2-2.7.4-2.9 1.2 0 .2-.2 2.2-.1 2.5.2.5.6.7 1.2.7.4 0 .8-.1 1.2-.1.5-.1 1-.2 1.3-.1-.7 1.7-1.6 1.9-2.7 2.1-.7.2-1.5.3-2.3 1-.9.8-2.1 2.1-2 3.5 0 .8.5 1.5 1.3 2.1-.1.7-.1 1.2.2 1.6.4.5 1.1.8 2.2 1-.8 1.9-2.3 2.6-3.8 3.3-1.2.2-2.2.7-3.1 1.6.1 0 0 0 0 0zm71.3-17.3c-.2-.2-.2-.7 0-1.3v-.1c.3.5.9 1 1.1 1.2-.5.3-.9.4-1.1.2zm-58.3 9.8c.1-.2.3-.3.6-.4 0 0 .3-.1.5-.1.1 0 .2 0 .2.1v.1c-.1.1-1 .3-1.3.3zM25 43.2c-.1-.1-.2-.1-.3-.1h-.1c0-.3.2-.5.3-.7.1-.1.1-.2.2-.3 0 .2 0 .3-.1.5v.6zm3.1 11.6c-.3-.1-.5-.6-.8-1l-.3-.6c.5.1.7.3.8.8 0 .2.1.3.2.5 0 .2.1.3.1.3 0 .1 0 .1 0 0 .6.6.6 1.2.6 1.9-.6-.3-.6-.7-.5-1.3-.1-.1-.1-.3-.1-.6 0 .1 0 .1 0 0zm30.5-23.2c-.1 0-.1 0 0 0-.1 0 0-.2.4-.9 0 .3-.1.8-.4.9zM96.2 5.3v-.1c-.1-.2-.3-.4-1-.4-.9 0-2.4.5-2.8.9h-.2c-.4 0-.7.4-.9.8-.3.5-.6.9-1.2 1-.9 0-1.6.5-2.2 1-.1.1-.2.1-.2.2-.5.2-.7.4-.7.6 0 .3.2.4.5.6.2.1.3.2.4.4-.6 1.5-2 1.7-3.5 1.9-.4 0-.8.1-1.2.2-1 .2-1.3.7-1.3 1 0 .8 1 1.7 1.9 2.1-1 .1-1.7.4-2 .9-.3.5-.2 1.2.3 2 .4.6 1.4.6 2.4.7 1.5 0 3 .1 3 1.6 0 .8.1 1.5.2 2.2.2 1.7.4 3.3-.4 5.2-.1.1-.1.3 0 .4.1.2.3.3.6.3.6.2 1.4.4 1.3 1.8-.4-.4-.9-.6-1.2-.6-.6 0-1 .5-1.1 1.3-.1.4 0 .8.2 1.1.2.2.5.3.8.3.6-.1.6-.3.6-.5 0-.1 0-.3.1-.4.1-.1.1-.1.2-.1s.3.2.3.5c.1.6-.1 1.3-.7 1.5-1.2.5-1.4 1.4-1.5 2.2-.1.6-.2 1.1-.6 1.5v.1c.2 1.2.4 2.1.7 3 .3 1.1.6 2.2.7 3.8.1.9.9 1 1.5 1.1.3 0 .6.1.6.2v.1c0 .2 0 .3.2.5.2.3.7.5 1 .5h.2c.7-.2 1.1-1.7 1.4-2.5 0-.1 0-.1.1-.2.2-.7.5-1.2.8-1.7.3-.5.6-1 .8-1.6.3-1.1 1.4-1.2 2.4-1.3.4-.1.9-.1 1.2-.3.7-.3 1.2-.9 1.6-1.4.6-.7 1.2-1.4 2-1.5 2.3-.2 4.1-1 6.2-2.9v-.1h-.1c-.1 0-1.8-.4-2.2-.5.2-.3.6-1 .8-1.2.2.1.3.4.5.6.2.4.5.8.9.8.2 0 .3-.1.6-.2.7-.4.3-1.4-.1-2.2-.2-.3-.3-.6-.3-.8 0-.5.5-1 .9-1.5.5-.5.9-.9.8-1.4 0-.2-.2-.4-.4-.5.6-.1 1-.3 1.1-.5.1-.2 0-.5-.2-.7-.1-.2-.2-.4-.2-.5 0-.1.1-.2.3-.3.3-.1.4-.3.5-.5.1-.4-.2-.9-.5-1.3-.3-.5-.6-1-.3-1.4.1-.1.2-.1.4-.1h.8c.2 0 .5 0 .6-.2.1-.2.1-.4-.1-.7-.1-.1-.1-.2-.1-.3-.4-.9-.4-.9-.2-1.9 0-.1.1-.3.1-.5.5-2.8 1.9-4.2 3.7-6l.1-.1c.5-.5.6-1.1.4-1.6-.2-.5-.8-.9-1.4-.9-.4 0-.8.1-1.1.4-.3.2-2.3 1.4-3 1.4h-.1l.5-.5c.5-.4 1.1-.9 1-1.3 0-.2-.1-.4-.4-.5-.1-.1-.2-.1-.3-.1-.3 0-.5.2-.8.4-.3.2-.6.4-.9.4.1-.4.1-.7 0-.9-.2-.3-.7-.3-1.3-.3h-.8c.3-.1.6-.1 1-.1.3 0 .6 0 .9.1.3 0 .7.1 1 .1.5 0 .9-.1 1.3-.2.6-.2.9-.5.9-.8 0-.4-.7-.7-1.4-1-.3-.1-.6-.2-.7-.3l-.1-.2c-.2-.4-.3-.4-.5-.5-.1 0-.3-.1-.8-.3 0 0 .1 0 .1-.1.3-.1.8-.3.8-.6 0-.2-.2-.3-.5-.4-.2-.1-.4-.2-.6-.2-.9-.3-1.9-.8-2.9-.8-.8 0-1.4.3-1.8.9-.2.3-.4.4-.6.4-.2 0-.5-.1-.7-.2-.2-.1-.5-.2-.7-.2-.2 0-.4.1-.5.2-.2.4-.5.8-.7 1.2-.2.2-.4.2-.6.2-.2 0-.5 0-.7.3 0 .1 0 .2.1.4.2.6.6 2.1.1 2.2h-.2c-.4 0-.5-.7-.5-1.3 0-.3 0-.5-.1-.7.2-.6 0-.9-.2-.9-.5 0-.7 1.2-.8 1.7 0 .2-.1.3-.2.3s-.2-.1-.4-.3c-.3-.3-.5-.8-.5-1v-.1-.1h-.1s-.1.1-.1.2V6c0 .2 0 .4-.3.4 0-.3.1-.4.1-.6 0-.1.1-.2.1-.3v-.1l.1-.1c0 .1 0 0 0 0zM240.1 142.4c.7-.2 1.5-.5 1.8-1.1v-.1-.1c.3-1.5 1.3-2.7 2.2-3.8.7-.9 1.4-1.7 1.8-2.8 1.4-3.4 1.4-5.5-.1-8.5-.1-.2-.3-.4-.4-.7-.3-.4-.6-.9-.7-1.3-.1-.6-.7-1.1-1.2-1.6s-1.1-1-1-1.4c.1-.7-.3-2.9-.7-3.6-.3-.2-.6-.4-.9-.7-.2-.4-.3-.8-.4-1.2-.1-.5-.2-.9-.5-1.4h-.1c-.6.1-.8 1.4-1.1 2.8-.3 1.5-.6 3.1-1.3 3.1-.1 0-.3-.1-.4-.2-.2-.1-.4-.3-.7-.4-.9-.5-2.1-1.2-2.3-2-.1-.5.2-.9.4-1.2.3-.3.6-.7.5-1.2 0 0 0-.1-.1-.1-.6 0-1.3-.1-1.9-.2-.3-.1-.5-.1-.7-.1-.3 0-.4.1-.6.1-.2.1-.4.2-.9.1-1.1-.1-1.4.7-1.7 1.4-.2.4-.3.8-.6 1-.3 0-.6-.2-1-.4-.3-.2-.7-.4-1-.4-.2 0-.3 0-.4.1-.8.4-1.3 1-1.8 1.6-.3.3-.5.7-.8.9-.1-.1-.3-.1-.4-.1-.5 0-.8.6-1.1 1.2-.2.4-.3.7-.5.9-.7.7-1.8.9-2.9 1.1-.9.2-1.8.4-2.6.9-2.2 1.4-1.8 4.1-1.3 6.7.3 1.7.5 3.2.1 4.5 0 .1-.1.3-.2.4-.2.6-.4 1.1-.2 1.5.2.3.6.5 1.3.6.6.1 1.1-.2 1.6-.5.2-.1.5-.3.7-.4.3-.1.5-.1.9-.1h1.2c.4 0 .6 0 .9-.1.6-.2 1.3-.6 1.8-.9 1.2-.6 2.4-1.2 3.9-1.2h.5c1 .1 2.3.5 2.8 1.4.1.2.2.6.3.9.1.5.2 1 .5 1.3h.1c.3-.2.5-.4.7-.6.3-.3.6-.6 1-.8-.3.5-1 1.7-.7 1.9 0 0 .1.1.2.1.2 0 .3-.1.5-.3l.2-.2c.1.4.3.9.4 1.4.4 1.6.9 3.6 2.5 3.6.4 0 .9-.2 1.5-.5.1.1.2.3.3.4.2.3.4.5.7.5.2 0 .4-.1.7-.3.4.3.8.2 1.2.1z"/><path class="st1" d="M74.3 12.6c0-.1 0-.1 0 0l-.1-.1c-.2-.1-.3-.2-.5-.2-.4 0-.6.5-.6 1.6-1.4.2-2 .5-2.1.8-.1.5 1.4 1.1 2.8 1.6.7.3 1.4.5 1.7.7.3.2.6.3.8.3.7 0 1-.8 1.2-1.7.3-.9.6-1.9 1.4-1.9h.5c.8 0 1.9-.9 2.1-1.6.1-.3.2-.7.2-1 .1-.7.1-1.1 1.1-1.1.2 0 .5 0 .8.1h.1c1.1 0 4.8-2.3 5.6-3.6.1-.2.2-.4.1-.6 2.9-.4 3.4-1.4 3.4-2.1-.1-1.7-4-3.7-6-3.7-.5 0-.9.1-1 .4-.4 0-.6-.2-.8-.3-.1-.1-.2-.2-.5-.2-.2 0-.4 0-.6.1-.3.1-.6.4-.9.7-.3.3-.5.5-.8.6-.2 0-.3-.2-.4-.4-.1-.2-.3-.4-.5-.4-.4 0-.6.4-.7.8-.1.2-.2.4-.3.5-.1 0-.2.1-.3.1-.3 0-.6-.1-1-.2s-.7-.2-1-.2c-.3 0-.5.1-.6.2-.2.2-.2.5-.1.9.1.3-.1.7-.2 1-.2.6-.4 1.1.1 1.6 1 .8 2.4 1.4 3.7 1.4h.4c-.2.1-.5.1-.7.1-.6.1-1.2.2-1.6.8-.3-.6-.7-1.2-1.3-1.2-.2 0-.5.1-.7.2-.1-.1-.1-.6-.1-.7v-.1c-.1-.2-.3-.4-.5-.5-.3-.2-.5-.4-.4-1 0-.3.1-1.3-.3-1.7-.2-.2-.4-.2-.6-.2-.1 0-.2.2-.7 1-.2.3-.4.7-.5.8-.2.3-.4.5-.6.7-.7.7-1.2 1.3-1.6 2.7v.1l1 .7c-.1.1-.3.2-.4.3-.5.3-1 .6-1.1 1.1-.1.3.1.7.4 1.1.3.3.6.5 1 .5.6 0 1.2-.4 1.7-.8.3-.2.6-.4.8-.5 0 0-.1.1-.2.1-.5.4-1 .9-1 1.3 0 .2.2.4.4.6.2.1.3.3.3.5.1.3 0 .6-.1.8-.2-.1-.3-.3-.3-.5.2-.1.1-.2.1-.3zM76.6 8c0-.1-.1-.2-.1-.3 0 0 .1-.1.1-.2l.1-.1c-.1 1.7-.3 2.6-.4 2.6l-.1-.1c0-.1 0-.4.1-.6.1-.4.3-.8.3-1.3 0 .1 0 .1 0 0zM49.7 14.1c-.1 0-.1 0 0 0l-.1-.1c-.2-.1-.4-.1-.6-.1-1.9 0-4.4 3.4-4.8 5.2-.2.8.1 1 .3 1.2h.5c.8 0 1.7-.1 2.2-1.1.3-.1.6-.3.9-.5.4-.3.8-.6 1.2-.6.1 0 .2 0 .3.1-1.1.3-1.9 1-2 1.7 0 .3.1.8.8 1.2-.9.1-1.3.4-1.4.7-.1.6 1.1 1.2 2.4 1.8.1.1.3.1.4.2-.2 0-.6-.1-1.2-.3-.4-.1-.8-.2-1-.2-.4 0-.7.1-.9.3-.2.2-.3.4-.3.8 0 .7.4.9.7 1 .2.1.5.2.6.5.1.2.1.4 0 .6 0 .3-.1.7.3.9.4.2.8.3 1.3.3.9 0 1.9-.3 2.7-.6.2-.1.5-.2.7-.2.4.5 1.3 1.4 2.1 1.4.2 0 .5-.1.7-.3.2-.4.4-.7.5-1.1.4 0 .7-.1 1.1-.2.3-.4-.1-1.1-.5-1.8-.3-.4-.5-.8-.5-1 0-.4.4-1.4.6-2.1.1-.2.1-.3.2-.4 0 0 .1-.2.3-.4.8-1.2 1.6-2.5 1.3-2.9-.1-.2-.5-.2-1.1 0-.5.2-2.4 2.5-2.9 3.5 0-.1.1-.3.1-.5.2-.7.4-1.5-.1-1.8h-.1l-.1.1c-.3.2-.5.6-.7.6 0 0-.1 0-.1-.2-.2-.6-1-1-1.3-1.1 0 0-.1 0-.1-.1v-1.1-.5-.1c0-1.4-.5-1.6-1.2-2.1-.3-.2-.6-.3-1-.6-.2 0-.2-.1-.2-.1zM244.1 109.8c0-.1 0-.1 0 0-.5-.3-.9-.6-1.3-.8-1.3-.8-2.3-1.5-4-2.1-.2-.1-.5-.2-.8-.3-.5-.3-1.1-.5-1.7-.5-.2 0-.4 0-.6.1-.4.1-.7.4-.9.6-.2.2-.5.5-.8.6-.2-.2-.4-.6-.6-.9-.3-.7-.7-1.5-1.5-1.5h-.3c-.6.1-.9.3-.9.6 0 .5.8 1 1.4 1.2-.5.1-.7.3-.7.5 0 .3.7.6 1.5.8.2 0 .3.1.4.1.5.4 1 .5 1.4.7.8.3 1.6.5 1.9 1.8 0 .1-.1.1-.2.2-.2.2-.5.4-.3.8h.1c.8 0 1.4.2 2 .4.4.2.8.3 1.2.3.5 0 1-.2 1.5-.8.2-.2.5-.4.8-.4.7 0 1.5.9 1.7 1.2.6.9 1.5 1 2.4 1.1.2 0 .3 0 .5.1h.1v-.1c-.1-.5-.7-1-1.1-1.4-.1-.1-.3-.2-.3-.3-.1-.1-.4-.8-.5-1.3-.1-.4-.2-.6-.3-.8 0 .1 0 .1-.1.1.1 0 .1 0 0 0zM212.4 104.1c-.1 0-.1 0 0 0-.1 0-.1 0 0 .4.6 2.3 1.2 2.4 2.6 2.8.4.1.8.2 1.3.4.4.1.7.2.9.2 1 0 1.4-.9 1.8-1.9.3-.8.6-1.6 1.3-2.2v-.1c-.8-1.3-.6-1.6-.3-2.2.2-.3.4-.7.5-1.5v-.1c-1.9-1.2-2.1-1-3.8.6l-.2.2c-.2.2-.7.6-1.4 1.1-1.4 1.1-2.4 1.9-2.7 2.3zM157.3 124.5c-.1 0-.1 0 0 0v.7c.1.8.4 1.2.9 1.2 1.1 0 2.8-2.1 3-2.7.2-.5.4-1 .7-1.6.7-1.6 1.5-3.4 1.5-5-.1-1.3-.3-1.9-.7-1.9-.3 0-.7.4-1.2 1-.6.7-1.3 1.5-2.1 1.6-.6.1-1 .4-1.2.8-.2.4-.3.9-.1 1.5.2.8 0 1.6-.3 2.5-.3.5-.5 1.2-.5 1.9zM154.2 27c0 .1 0 .1 0 0 .4.5.2.8.1 1.2-.1.2-.2.4-.1.6.1.2.4.4 1.1.6.4.1.6.3.9.6.3.3.7.7 1.4.7h.1c.2 0 .3-.1.4-.2.2-.3-.3-1-.8-1.7-.4-.5-.8-1.1-.8-1.4-.2-1.5.3-4.1 1.5-5.2.2-.5.9-1.1 1.6-1.7.9-.8 1.9-1.7 1.8-2.4 0-.6-.3-.9-.8-.9-.8 0-2.1 1-2.9 1.6-.2.2-.4.3-.5.4-.4.2-2.7 2.7-2.5 3.3.3.5 0 1.4-.3 2.3-.3.8-.5 1.7-.2 2.2zM231 68.6c-.1 0-.1 0 0 0-.1 0-.1 0 0 0-.2.3-.2.5-.3.8 0 .3-.1.6-.3.9-2.7.5-3.9 1.9-3.6 4 .1 1 .4 1.2.7 1.2.2 0 .5-.2.6-.6.2-.6.3-1.5-.3-2.1.4-.3.7-.6 1.2-.6l-.3.3c-.2.1-.4.2-.4.4s.1.3.3.5c.5.5 1 .3 1.3-.5.2-.4.2-.9.2-1.1.1 0 .2.3.3.5.1.2.1.4.2.4.1.1.2.1.4.1.3 0 .4-.3.6-.6.1-.2.2-.5.4-.6.5-.2.9-.4 1.3-.5 1.1-.4 1.6-.5 1.3-2.5v-.9c0-1.2.1-3.1-.6-3.8-.3-.3-.7-.4-1.2-.2s-.4 1-.2 2c.1.9.3 2-.2 2.5-.3.5-.8.5-1.4.4zM209.6 106.3s-.1 0 0 0h-.2c-.5 0-1-.7-1.5-1.4-.3-.4-.5-.7-.7-.9-.5-.4-1-.9-1.5-1.4-1.2-1.1-2.4-2.3-4.1-2.7-.2.1-.4.2-.4.4-.1.5.8 1.3 1.5 1.9.2.2.4.4.5.4.5.7.9 1.5 1.3 2.2.4.9.9 1.7 1.5 2.4l.3.3c.6.7 1.8 2.1 2.8 2.1.2 0 .3 0 .5-.1.4-.3 1.1-2 .8-2.8-.1-.3-.3-.5-.6-.5l-.2.1zM120 50.6s-.1 0-.2-.1c-.2-.1-.2-.3-.2-.5s0-.5-.4-.5c-.1 0-.2 0-.3.1-.4.1-.6.3-.8.5-.4.6 0 1.6.3 2.5.2.5.3.9.3 1.2 0 0 0 .1.1.1.2.1 1.2.8 1.2 1.2 0 .1 0 .2-.2.2-.6.2-1 .6-1.1 1.2 0 .5.3 1.1.8 1.4-.5.2-.8.6-1.1 1.1-.1.1-.1.2-.2.3v.1h.1c.3-.1.7-.1 1.2-.2 1.4-.2 3.4-.4 4-1.5.3-.4.3-.9.1-1.5-.2-.7-1.5-2.1-2.4-3.1l-.5-.5c-.4-.4-.3-.8-.1-1.1.1-.3.2-.6-.2-.9v-.1c-.2.1-.3.1-.4.1z"/><path class="st1" d="M67.6 12.7c-.1 0-.2.1-.2.1-.1.1-.1.2-.2.3-.1.4.1 1 .2 1.2.2.4.4.7.6.9.4.5.4.5-.1 1.6l-.2.4c-.2.4-.1.7.1 1.1.8 1.3 4.1 2.1 5.5 2.1.3 0 .5 0 .7-.1 1.2-.5 1.3-1.1 1.2-1.5-.2-.8-1.4-1.6-2.6-1.6-.2 0-.4 0-.6.1-.8.2-1.4.2-1.6-.1-.3-.4-.2-1.2 0-1.8.1-.3.1-.6.1-.8v-.1l-.1-.1c-.9-.7-2.2-1.7-2.8-1.7zM58.7 12v.1c-.2 1.2-.5 1.3-.6 1.3-.3 0-.6-.6-.8-1.4-.1-.8-.7-1.3-1.4-1.3-.4 0-.7.1-1.1.4-.9.8-1.7 1.5-1.5 2.2.1.4.6.8 1.5 1-.3.4-.4.7-.3.9.2.4.9.5 1.4.5 1.6 0 4.3-.7 5-1.5.2-.2.3-.4.2-.6-.1-.2-.3-.3-.6-.4-.4-.1-.7-.2-.7-.5v-.2c.2-.7.3-1.4-.1-1.6h-.1c-.4.1-.8.7-.9 1.1zM259.2 148.1v-.1s-.2-.1-.5-.4h-.1H258.3h-.1c-.6 1.6-2 2.5-3.4 3.4-1.4.9-2.8 1.8-3.4 3.4v.1c.7.6 1.3.9 1.7.9.8 0 1.3-.7 1.8-1.5.4-.5.8-1.2 1.4-1.6.2-.1.3-.3.5-.4 1.1-.8 2.4-1.8 2.4-2.9.2-.3.1-.6 0-.9zM107 42.3c-.1 0-.1 0 0 0-.1.1 0 .1 0 .1.2 0 .4 0 .7.1.5 0 1.2.1 1.8.1 1.4 0 2.3-.3 2.8-.8.4-.4.5-.9.5-1.5 0-1-.5-1.5-1.2-1.5s-1.5.4-2.2.7c-.5.2-1 .4-1.2.4-.3 0-.3-.2-.4-.4-.1-.3-.2-.6-.7-.6-.1 0-.3 0-.4.1-.4.1-.6.2-.6.4-.1.3.3.5.6.7.1.1.2.1.2.2l-.7.5v.1s.1.1.2.3c.1.1.6.9.6 1.1zM204.7 6c-.2 0-.3 0-.4.1-.2.2-1.1.4-1.9.4-.3 0-.5 0-.6-.1-.3-.1-.5-.1-.7.2-.1.1-.1.3-.1.6 0 1 .8 2.9 2.4 2.9h.2c.6 0 2.3-1.5 2.7-2 .2-.3.2-.7 0-1.1-.5-.6-1.1-1-1.6-1zM260.1 148.2s0 .1 0 0c-.1.3-.1.4 0 .5 0 0 .1.1.2.1.5 0 1.9-1.2 2-1.3.2-.2.4-.4.6-.7.7-.7 1.5-1.7 1.6-2.3v-.1c-.3-.2-2.2-1.9-2.3-2.8.1-.3-.2-1.2-.4-1.6-.2-.3-.5-.3-.6 0-.3.6-.1 1.3 0 2.1.2.8.4 1.6 0 2.4-.1.2-.3.4-.5.6-.4.4-.8.7-.3 1.4.5.5.3.8 0 1.2-.1.1-.2.3-.3.5zM222.3 104.5h.5c1.8 0 2.8-.2 3-.6.1-.1 0-.3-.1-.4-.1-.1-.3-.2-.7-.2-1.2 0-3.6.7-3.8 1.5 0 0-1.1 3.5-.4 4.4.1.2.3.2.4.2h.2c.4-.1.5-.7.6-1.2 0-.2.1-.5.1-.6.4.7.7 1.1 1 1.1.1 0 .2 0 .2-.1.2-.3.1-1.2-.2-2.1l1.4-1.2v-.1h-.4c-.6 0-1 .1-1.4.3l-.2.1h-.2c-.3 0-.5-.2-.5-.4-.1-.3.1-.6.5-.7zM57.2 7.8h-.3c-3.3.4-5.1 1.1-5.3 1.9-.1.4.2.9 1 1.4.7-.3 1.4-.6 1.9-1.3v.4c0 .2-.1.4 0 .5.1.1.2.1.5 0 .4-.2 2.4-2.3 2.3-2.7 0-.1 0-.2-.1-.2zM171.5 8c.1.1.4.3.4.3h.1c.5.2 1.4.4 2 .4.5 0 .9-.1 1-.3.1-.2.1-.4-.1-.8-.1-.2-.2-.4-.3-.5-.6-1-1-1.8-2.3-1.8-.2 0-.4 0-.7.1-.5-1.5-.9-1.8-2.5-2.4h-.1c-.4.8-.1 2.2.1 3.1.1.2.1.5.1.5-.1.2-.1.3-.1.5.1.3.5.5.8.5.5 0 .5-.4.6-.7 0-.1 0-.3.1-.4.2.6.2 1 .9 1.5zM231.8 61.5c0 .4.1 1 .3 1.4.1.2.3.3.4.3.2 0 .3-.1.4-.4.2-.4.2-.6.3-.7.1.1.2.1.4.1s.4 0 .7-.1c.5-.2 1.1-.8 1.3-1.4.1-.4.1-.7-.1-.9-.1-.2-3.1-1.5-3.3-1.5-.3.2-.1.7 0 1.2.1.2.1.4.1.4 0 .5-.1.6-.3.9 0 .1-.1.2-.2.3 0 .1-.1.2-.1.2.1.1 0 .1.1.2-.1 0-.1 0 0 0-.1 0-.1 0 0 0zM136.3 13.8c-.2-.8-2.2-1.1-3.9-1.3h-.3-.1c-.6.8-.7.8-.8 1.5-.1 0-.2-.1-.2-.1-.2-.1-.3-.2-.5-.2-.1 0-.2 0-.4.1s0 0-.1 0l-.1.1s-.1.1-.1.2c-.1.1-.2.2-.4.2s-.3 0-.5-.1c-.2 0-.4-.1-.6-.1-.5 0-.7.2-.9.8-.1.5.3 1.3.7 1.9.4.5.9 1.1 1.4 1.2-.1.3-.1.5-.1.6.1.1.2.1.3.1.2 0 .3 0 .3.2v.2c0 .5-.1 1.4.3 1.9.2.2.5.4 1 .4s.6-.9.7-1.9c.2-1.2.3-2.5 1.1-2.8-.1.2-.2.4-.1.6.2.5.4 1.1.4 1.8 0 0 0 .1.1.1.3.1.6.1.8.1.8 0 .9-.4.9-.6 0-.8-1-2-1.9-2.2-.1-.5-.5-.9-1-1.4-.3-.3-.7-.7-.9-1l.1.1c.8.5 1.7 1.1 2.6 1.1.2 0 .4 0 .5-.1h.1c.1 0 .3-.2.4-.2 1-.4 1.3-.8 1.2-1.2zm-6.2 3.6c.1 0 .1 0 0 0 .1.1.1.2-.1.4-.1 0-.2.1-.3.1.2-.4.3-.5.4-.5zm1.2 4zM115.6 54.3s-.1 0 0 0h-.2c-.1 0-.1 0-.1.1-.1.1-.2.2-.3.4-.4.8-.5 2.2-.3 2.5.3.5.6.7 1 .7 1.1 0 2-2.5 2.3-3.4.1-.2.1-.3.1-.3v-.1c-.3-.6-.6-.9-.9-.9-.3 0-.6.2-.8.4-.2.4-.5.6-.8.6zM65.3 7.9c.1.5 1.5 2.7 1.6 2.7.5 0 .8-.2 1-.5.7-1.1-.4-3.7-.6-4.2-.1-.3-.3-.4-.5-.4-.4 0-.8.8-1.1 1.4-.2.3-.3.7-.4.7v.3zM222.6 88.8c0-.1 0-.1 0 0-.2-.5-.4-.7-.6-.7-.4 0-.8.6-1.2 1.9v.1c-.2.4.4 2.8.9 3.5.1.2.2.3.3.3.3 0 .3-.3.3-.4 0-.3 0-.6.1-.7 0 0 .1-.1.2-.1.2 0 .5.2.8.3.2.1.5.3.6.3.1 0 .2 0 .2-.1.1-.3.1-.5-.1-.6-.2-.3-.5-.3-.9-.4-.3 0-.5-.1-.6-.2-.4-.4-.3-1-.1-1.6.1-.4.2-.9.2-1.3l-.1-.3zm-.5 5.1zM211.5 109.8h-.1-.4c-.6 0-1.2.2-1.3.5-.1.2.1.5.6.7 1.1.6 3.3.9 4.8.9h.2c.1 0 .3 0 .5.1.1.1.3.1.4.1.2 0 .3-.1.4-.3.1-.1.1-.3 0-.4-.3-.6-2.2-1-4.1-1.4-.5-.1-.9-.2-1-.2.1.1 0 0 0 0zM238.8 145.8c-.1 0-.1 0 0 0-.1-.1-.1-.1-.2-.1h-.1-.1c-.5 0-.8-.1-1.1-.1-.2 0-.4-.1-.6-.1-.5 0-.7.4-.7 1.4-.1 1.1 0 1.7.3 2 .1.1.2.2.4.2.9 0 2.2-2.1 2.2-2.9 0-.2-.1-.3-.1-.4zM64.6 13.3c0 .2-.1.4-.4.5-.2.1-.3 0-.5 0-.1 0-.2-.1-.3-.1-.4 0-.7.3-1 1.2v.1l.7.2c0 .1 0 .1.1.1-.3.3-.5.7-.4 1 .1.2.3.3.6.4h.2c.9 0 1.7-1.4 2.1-2l.1-.1c.1-.2.4-.7.3-1.1-.1-.2-.2-.3-.4-.3-.3-.2-.5-.2-.7-.2-.3 0-.4.2-.4.3zM61.4 87.7c.1 0 .1 0 0 0 .4-.2.5-.4.5-.5-.2-1-4.3-2.7-6.5-2.7-.6 0-1 .1-1.2.4-.1.2-.2.4-.2.7 0 0 0 .1.1.1h.2c.7 0 2.8.4 3.2.4.6.1 1.1.5 1.5 1 .5.5.9.9 1.6.9h.2c.2-.2.4-.2.6-.3-.1.1 0 .1 0 0zM176.6 10.4s.1 0 0 0c1.4-1 2-1.6 1.9-2.2-.1-.7-1-1.2-2.5-1.8h-.1c-.8.5-.2 2.6.3 3.5.1.1.2.3.4.5zM224.1 97.3h-.4c-.4 0-.5.2-.5.3 0 .5 1.2 1.4 1.5 1.5.1.4.3.6.6.6.5 0 1.4-.6 1.6-1.5.1-.4.2-1.2-.8-1.8h-.1l-.3.3c-.4.4-.8.7-1.3.7-.1-.1-.2-.1-.3-.1zM62.4 88.8s-.1 0 0 0c-.1 0-.1 0 0 0l-.1.2s0 .1.1.1c.6.1 1.6.3 2.6.3s1.7-.2 2.1-.7v-.1c-.6-.5-1.9-1.2-2.8-1.2-.4 0-.7.1-.9.4 0 .1 0 .2.1.4s.1.3 0 .5l-1.1.1zM189.8 97.8c-.2-.6-.7-1-1.1-1-.2 0-.7.2-.7 1.3.1.5.3 1.5.9 1.5.1 0 .3-.1.4-.2l.1-.1.1-.1c.5-.2.5-.8.3-1.4zM69.1 11h.2c.5 0 .8-.3.9-.9.1-.7-.2-1.6-.9-1.9h-.1c-.4.3-1.1 1.3-.9 2.1 0 .3.2.5.5.6l.3.1c-.1 0-.1 0 0 0zM221.5 82.2c0-.1 0-.1 0 0v-.1c-.1-.2-.2-.2-.3-.2-.5 0-1.2 1.4-1.2 2.3 0 .5.2.8.7.8h.2c.6-.1.7-1.1.7-1.8v-.4c0-.3 0-.5-.1-.6zM59.5 7.7c-.2.1-.3.4-.3.6 0 .4.3.8.8.8.3 0 .9-.2 1.6-1.1v-.1c-.4-.2-.8-.3-1.3-.3h-.4-.1-.1l-.2.1zM208.9 7.5h.3c.7-.1.8-.3.8-.5 0-.4-.9-.8-1.7-.8h-.4c-.5.1-.8.2-.7.4.1.4 1.1.8 1.7.9zM248.3 108.6c0-.1-.1-.1-.3-.1-.4 0-1.4.4-2.2.7-.3.1-.6.2-.7.3 0 0-.1 0-.1.1.1.4.4.7.9.7h.3c.8 0 1.4-.4 1.8-1l.1-.2s0-.1.1-.1c.1-.3.1-.4.1-.4zM66.6 16.1s-.1 0-.1-.1c-.1 0-.2-.1-.3-.1-.4 0-.7.4-.7 1s.3 1.3.7 1.3c.3 0 .6-.4.9-1.2-.1-.5-.2-.8-.5-.9zM206.5 11.7c0 .1-.1.1 0 0v.4c.1.3.4.3.6.3h.1c1.1-.1 1.3-.4 1.3-.6 0-.4-.7-.8-1.2-.8-.3 0-.5.1-.6.2-.1.2-.2.4-.2.5zM62.1 6.2H61.8h-.1c-.4 0-.8 0-1.1.4v.1c.6.4 1.1.6 1.4.6.2 0 .3-.1.4-.2.1-.1.1-.2.1-.4s-.1-.4-.2-.5c0 0-.1-.1-.2 0zM213.2 87.4c0-.2-.1-.3-.3-.4h-.2c-.2 0-.4-.1-.5-.1-.4 0-.7.2-.7.6 0 .5.6 1.3 1.1 1.3.1 0 .6-.2.6-1.4zM128.5 70v.1c.1.3.2.4.3.4.4 0 .8-.8.9-1.1-.1-.7-.3-1.1-.6-1.1-.1 0-.2.1-.3.2-.2.4-.4.8-.3 1.5zM72.8 32.3c0-.1-.1-.1-.3-.1-.4 0-1.3.6-1.4 1-.1.2-.1.4 0 .5.1.1.2.2.4.2.4 0 .9-.3 1.2-.6h.1v-.1-.1c.1-.5.1-.7 0-.8zM11.4 38.9c.1 0 0 0 0 0 0-.1-.1-.1-.1-.1-.1-.1-.1-.1-.2-.1s-.2 0-.2-.1h-.5c-.8 0-.9.5-.9.6 0 .4.4.8.8.8.3 0 .8-.1 1.1-1.1zM23.9 47.7c-.1-.1-.1-.1-.2-.1-.2 0-.4.2-.5.5-.2.5-.2 1.2.3 1.7l.1.1s.1 0 .1-.1c.3-1 .4-1.8.2-2.1zM152.3 7.8h-.2c-.1.9 0 1.5.3 1.7.1.1.1.1.2.1.3 0 .6-.4.9-1.3.1 0 .1-.1.2-.1.2-.1.4-.3.5-.5 0 0 .1-.1.1-.2s0-.2-.1-.4-.3-.3-.5-.3c-.1 0-.3.1-.4.2-.1.2-.2.5 0 1.3-.2 0-.3-.1-.4-.2-.1-.1-.3-.3-.6-.3zM4 26.7h.1c.3 0 .4-.1.5-.4-.1-.6-.9-1.3-1.3-1.3-.1 0-.2 0-.2.1-.1.2.1.6.6 1.3.1.2.2.3.3.3-.1 0-.1 0 0 0zM224.7 113.6c.1 0 .1 0 .2-.1l.2-.1c.1 0 .1-.1.2-.1.4-.3.9-.6 1.4-.8v-.1-.1c-.3-.1-.6-.2-.8-.2-.9 0-1.4.8-1.4 1.2 0 .2.1.3.2.3zM150.2 8.3s0-.1 0 0h-.1-.2-.1c-.6 0-.6.4-.6.5 0 .4.5.9 1 .9h.1c.3 0 .5-.3.5-.6 0-.4-.2-.7-.6-.8zM68.4 11.9c0 .1.1.1.1.1l.1.1c.3.2.6.4.9.4.3 0 .5-.1.6-.3v-.1c-.1-.5-.5-.8-1-.8-.4 0-.7.1-.8.3 0 .1 0 .2.1.3zM224.9 95.2v.1c.1.2.2.2.3.2.1 0 .2-.1.3-.3.2-.3.3-1 .1-1.3-.2-.3-.3-.4-.5-.4-.1 0-.1 0-.2.1-.1.2-.2.6-.1.8v.3c.1.2.1.3.1.5zM218.9 111.8c-.3.1-.5.1-.8.1h-.1v.1c.3.4.7.6 1.1.6.4 0 .8-.1 1.2-.3.1 0 .2-.1.2-.1v-.1-.1c-.3-.2-.6-.3-1-.3-.2 0-.4 0-.6.1zM153.7 32.7c-.3 0-.5.1-.6.4 0 .2.1.4.2.5.1.1.3.2.5.2.3 0 .7-.2.7-.7 0-.2 0-.3-.2-.4-.2.1-.4 0-.6 0zM228.3 103.2s-.1 0-.2-.1c-.3.2-.5.9-.4 1.3.1.2.2.3.4.3h.1c.4-.1.6-.5.6-.8-.1-.3-.2-.6-.5-.7zM150.6 10.9v.1c.1.1.2.2.3.2.4 0 1-.4 1-.8 0-.1 0-.4-.4-.5-.3-.1-.7.1-.9.4v.6zM24.1 46.1c.1.3.2.3.3.3h.1c.2-.1.3-.3.3-.6v-.1c0-.3 0-.7-.1-.8-.1-.1-.1-.1-.2-.1-.4.3-.5.9-.4 1.3zM63.8 40.9c.1.1.2.1.3.1.4 0 1-.3 1.1-.7v-.2c0-.1-.1-.1-.3-.1-.3 0-.7.1-1 .4h-.1c0 .1-.1.1-.1.2s0 .2.1.3zM145.8 10.4c.2.9.4 1.3.8 1.3.3 0 .6-.3.9-.9.5-.8.5-1 .4-1.1 0-.1-.1-.1-.2-.1-.2 0-.4.1-.6.2-.3.1-.7.2-.9.2-.2-.4-.4-.5-.6-.5-.5 0-.8.9-.8 1.4 0 .3.2.3.2.3.1 0 .2-.1.3-.2l.1-.1c.1-.1.2-.3.4-.5 0 .1 0 .1 0 0zM258.5 125c.1 0 .1 0 0 0 .1-.1.1-.1 0 0v-.3c-.4-.6-.7-1.2-1.6-1.7h-.1v.1c.3 1 .8 1.6 1.7 1.9zM62.8 12.3c-.1-.1-.2-.1-.2-.1-.3 0-.5.4-.5.7 0 .3.1.7.5.8h.1c.1 0 .2 0 .2-.1.1-.1.1-.3.1-.5s.1-.5-.1-.7l-.1-.1zM222.6 112.3c.2 0 .3-.1.4-.1.1 0 .1 0 .2-.1 0 0 .1 0 .1-.1v-.2s0-.1-.1-.1h-.3c-.4 0-1.6 0-1.7.2v.1c.2.2.5.2.8.2.3.2.4.2.6.1zM74.5 58.1h-.2c-.1.2-.1.4 0 .5.2.3.6.5 1 .5h.1c.2 0 .2-.1.2-.2 0-.2-.7-.6-1.1-.8.1 0 .1 0 0 0zM129 68s.1 0 0 0c.1 0 .1 0 0 0 .3-.2.4-.8.3-1.1 0-.1-.1-.2-.2-.2-.3.1-.5.2-.5.5-.1.3.1.6.4.8zM165.4 24.1c-.1-.3-.3-.5-.6-.5-.1 0-.2 0-.3.2-.1.2-.1.3 0 .5s.3.3.5.3.3-.1.4-.3v-.1-.1zM59 89.1c0 .1 0 .1 0 0 .1.3.2.4.5.4s.7-.2.8-.2v-.1c-.1-.4-.3-.5-.7-.5h-.1c-.2 0-.4 0-.5.2v.2zM54.1 11.1c0-.1 0-.1-.1-.1h-.1c-.4.1-1.2.3-1.4.7 0 .1 0 .2.1.3.1.1.2.1.3.1.5 0 1-.7 1.1-.9 0 0 .1 0 .1-.1zM189.3 16.4c.3 0 .4-.2.4-.4 0-.6-.3-.7-.4-.7-.3 0-.6.4-.7.7 0 .1 0 .4.5.4h.2zM229.9 107.9h.4l.1-.1v-.2c-.1-.3-.9-.3-1.3-.3-.2 0-.6 0-.7.1v.1c.1.1.9.4 1.5.4zM250.8 110.5c.4-.1.4-.3.4-.4 0-.3-.4-.7-.7-.7-.1 0-.2 0-.2.1-.1.4 0 .7.4.9 0 .1 0 .1.1.1zM66.7 41h-.1c-.3 0-.5.2-.6.4-.1.2 0 .4.1.5.1.1.1.1.2.1.2 0 .3-.2.4-.3.1-.2.1-.4.1-.5 0 0 0-.1-.1-.1.1-.1 0-.1 0-.1zM.3 42.6h.2c.5 0 .6-.3.6-.5-.1-.2-.2-.3-.5-.3-.4 0-.8.2-.8.6v.1l.5.1c-.1-.1-.1-.1 0 0-.1 0 0 0 0 0zM148.3 74.7c.2 0 .4 0 .6-.2.1 0 .1-.1.2-.2s0-.2 0-.2c0-.1-.2-.1-.4-.1-.3 0-.7.1-.8.3-.1.1-.1.2 0 .3 0 0 .2.1.4.1zM2.8 32.5c0 .1 0 .1 0 0v.2c0 .2.2.3.4.3.3 0 .6-.2.7-.4 0-.1-.1-.3-.5-.4h-.1-.2c-.1.2-.2.2-.3.3zM141.9 74.4H142.2c.1 0 .1-.1.2-.1l.1-.1v-.1c-.3-.4-.8-.4-1.5-.1v.2c.3.1.6.2.9.2zM221 112.6h-.2c-.1 0-.1.1-.1.2 0 .2.3.6.7.6.1 0 .3-.1.4-.3v-.1c-.1-.1-.4-.3-.8-.4zM63.6 9.7s-.1 0 0 0h-.1c-.1.1-.1.2-.1.3-.3.6-.4.8-.4 1l.1.1s.1 0 .2-.1c.5-.3.6-.7.3-1.3 0 .1 0 .1 0 0zM269.3 119.5c-.1 0-.1 0 0 0l-.1.1v.1s.1.1.2.1c0 0 .1 0 .1.1h.1c.2 0 .3-.1.4-.4 0-.1-.1-.2-.4-.2-.1.1-.2.1-.3.2zM68 89.2c.1.2.2.3.4.3.3 0 .5-.1.5-.2.1-.1.1-.2 0-.4-.1-.1-.3-.1-.4-.1-.2 0-.4.1-.4.2l-.1.1v.1c0-.1 0 0 0 0zM223.4 94.6c0-.1 0-.1 0 0 0 0-.1 0-.1-.1-.2 0-.4.3-.4.5s.1.5.5.5h.1c0 .1 0 .2-.1.4-.1.1-.1.3-.1.4v.1c0 .1.1.1.1.2.1.2.2.2.3.2.3 0 .5-.4.5-.8 0-.2 0-.3-.1-.4-.1-.1-.2-.2-.4-.2.1-.2.2-.3.1-.5s-.2-.3-.4-.3zM78.6 153.3s.1 0 .1-.1c.1 0 .2-.1.3-.1.1-.1.2-.1.2-.2v-.3c-.1-.1-.3-.2-.3-.2-.2 0-.4.1-.4.3-.2.3-.1.5.1.6-.1 0 0 0 0 0zM268 120.8c0 .1 0 .1 0 0 0 .1 0 .1 0 0 .1.2.2.4.5.4.2 0 .5-.1.6-.4 0-.1 0-.3-.1-.4-.1-.1-.2-.2-.4-.2s-.3.1-.4.2c-.1.1-.1.1-.1.2-.1.1-.1.1-.1.2z"/><use xlink:href="#Dot" width="55" height="55" id="XMLID_579_" x="-27.5" y="-27.5" transform="matrix(.07845 0 0 -.07842 214.613 67.178)" overflow="visible"/><use xlink:href="#Dot" width="55" height="55" id="XMLID_578_" x="-27.5" y="-27.5" transform="matrix(.07845 0 0 -.07842 69.786 63.57)" overflow="visible"/><use xlink:href="#Dot" width="55" height="55" id="XMLID_577_" x="-27.5" y="-27.5" transform="matrix(.07845 0 0 -.07842 130.09 61.9)" overflow="visible"/><use xlink:href="#Dot" width="55" height="55" id="XMLID_576_" x="-27.5" y="-27.5" transform="matrix(.07845 0 0 -.07842 120.39 57.112)" overflow="visible"/><use xlink:href="#Dot" width="55" height="55" id="XMLID_575_" x="-27.5" y="-27.5" transform="matrix(.07845 0 0 -.07842 135.06 123.486)" overflow="visible"/><use xlink:href="#Dot" width="55" height="55" id="XMLID_574_" x="-27.5" y="-27.5" transform="matrix(.07845 0 0 -.07842 140.08 68.63)" overflow="visible"/><use xlink:href="#Dot" width="55" height="55" id="XMLID_573_" x="-27.5" y="-27.5" transform="matrix(.07845 0 0 -.07842 185.324 78.667)" overflow="visible"/><use xlink:href="#Dot" width="55" height="55" id="XMLID_572_" x="-27.5" y="-27.5" transform="matrix(.07845 0 0 -.07842 130.837 52.837)" overflow="visible"/><use xlink:href="#Dot" width="55" height="55" id="XMLID_571_" x="-27.5" y="-27.5" transform="matrix(.07845 0 0 -.07842 137.004 62.057)" overflow="visible"/><use xlink:href="#Dot" width="55" height="55" id="XMLID_570_" x="-27.5" y="-27.5" transform="matrix(.07845 0 0 -.07842 77.292 125.428)" overflow="visible"/><use xlink:href="#Dot" width="55" height="55" id="XMLID_569_" x="-27.5" y="-27.5" transform="matrix(.07845 0 0 -.07842 66.334 66.472)" overflow="visible"/><use xlink:href="#Dot" width="55" height="55" id="XMLID_568_" x="-27.5" y="-27.5" transform="matrix(.07845 0 0 -.07842 260.234 148.348)" overflow="visible"/><use xlink:href="#Dot" width="55" height="55" id="XMLID_567_" x="-27.5" y="-27.5" transform="matrix(.07845 0 0 -.07842 26.244 71.648)" overflow="visible"/><use xlink:href="#Dot" width="55" height="55" id="XMLID_566_" x="-27.5" y="-27.5" transform="matrix(.07845 0 0 -.07842 53.036 95.763)" overflow="visible"/><use xlink:href="#Dot" width="55" height="55" id="XMLID_565_" x="-27.5" y="-27.5" transform="matrix(.07845 0 0 -.07842 125.88 60.865)" overflow="visible"/><use xlink:href="#Dot" width="55" height="55" id="XMLID_564_" x="-27.5" y="-27.5" transform="matrix(.07845 0 0 -.07842 26.636 70.707)" overflow="visible"/><use xlink:href="#Dot" width="55" height="55" id="XMLID_558_" x="-27.5" y="-27.5" transform="matrix(.07845 0 0 -.07842 215.005 84.784)" overflow="visible"/><use xlink:href="#Dot" width="55" height="55" id="XMLID_556_" x="-27.5" y="-27.5" transform="matrix(.07845 0 0 -.07842 150.398 79.177)" overflow="visible"/><use xlink:href="#Dot" width="55" height="55" id="XMLID_555_" x="-27.5" y="-27.5" transform="matrix(.07845 0 0 -.07842 204.78 93)" overflow="visible"/><use xlink:href="#Dot" width="55" height="55" id="XMLID_487_" x="-27.5" y="-27.5" transform="matrix(.07845 0 0 -.07842 121.997 57.583)" overflow="visible"/><use xlink:href="#Dot" width="55" height="55" id="XMLID_485_" x="-27.5" y="-27.5" transform="matrix(.07845 0 0 -.07842 237.27 142.072)" overflow="visible"/><use xlink:href="#Dot" width="55" height="55" id="XMLID_483_" x="-27.5" y="-27.5" transform="matrix(.07845 0 0 -.07842 66.805 66.316)" overflow="visible"/><use xlink:href="#Dot" width="55" height="55" id="XMLID_482_" x="-27.5" y="-27.5" transform="matrix(.07845 0 0 -.07842 62.176 69.492)" overflow="visible"/><use xlink:href="#Dot" width="55" height="55" id="XMLID_481_" x="-27.5" y="-27.5" transform="matrix(.07845 0 0 -.07842 131.57 64.737)" overflow="visible"/><use xlink:href="#Dot" width="55" height="55" id="XMLID_480_" x="-27.5" y="-27.5" transform="matrix(.07845 0 0 -.07842 137.257 68.227)" overflow="visible"/><use xlink:href="#Dot" width="55" height="55" id="XMLID_479_" x="-27.5" y="-27.5" transform="matrix(.07845 0 0 -.07842 219.62 77.37)" overflow="visible"/><use xlink:href="#Dot" width="55" height="55" id="XMLID_478_" x="-27.5" y="-27.5" transform="matrix(.07845 0 0 -.07842 68.623 89.147)" overflow="visible"/><use xlink:href="#Dot" width="55" height="55" id="XMLID_477_" x="-27.5" y="-27.5" transform="matrix(.07845 0 0 -.07842 64.674 67.688)" overflow="visible"/><use xlink:href="#Dot" width="55" height="55" id="XMLID_476_" x="-27.5" y="-27.5" transform="matrix(.07845 0 0 -.07842 68.23 67.1)" overflow="visible"/><use xlink:href="#Dot" width="55" height="55" id="XMLID_475_" x="-27.5" y="-27.5" transform="matrix(.07845 0 0 -.07842 220.013 76.31)" overflow="visible"/><use xlink:href="#Dot" width="55" height="55" id="XMLID_474_" x="-27.5" y="-27.5" transform="matrix(.07845 0 0 -.07842 57.966 106.938)" overflow="visible"/><use xlink:href="#Dot" width="55" height="55" id="XMLID_473_" x="-27.5" y="-27.5" transform="matrix(.07845 0 0 -.07842 136.533 133.624)" overflow="visible"/><use xlink:href="#Dot" width="55" height="55" id="XMLID_472_" x="-27.5" y="-27.5" transform="matrix(.07845 0 0 -.07842 67.447 66.16)" overflow="visible"/><use xlink:href="#Dot" width="55" height="55" id="XMLID_471_" x="-27.5" y="-27.5" transform="matrix(.07845 0 0 -.07842 128.912 62.84)" overflow="visible"/><use xlink:href="#Dot" width="55" height="55" id="XMLID_470_" x="-27.5" y="-27.5" transform="matrix(.07845 0 0 -.07842 36.757 72.59)" overflow="visible"/><use xlink:href="#Dot" width="55" height="55" id="XMLID_469_" x="-27.5" y="-27.5" transform="matrix(.07845 0 0 -.07842 117.03 74.965)" overflow="visible"/><use xlink:href="#Dot" width="55" height="55" id="XMLID_468_" x="-27.5" y="-27.5" transform="matrix(.07845 0 0 -.07842 57.73 97.057)" overflow="visible"/><use xlink:href="#Dot" width="55" height="55" id="XMLID_467_" x="-27.5" y="-27.5" transform="matrix(.07845 0 0 -.07842 230.364 72.115)" overflow="visible"/><use xlink:href="#Dot" width="55" height="55" id="XMLID_186_" x="-27.5" y="-27.5" transform="matrix(.07845 0 0 -.07842 147.517 52.837)" overflow="visible"/><use xlink:href="#Dot" width="55" height="55" id="XMLID_185_" x="-27.5" y="-27.5" transform="matrix(.07845 0 0 -.07842 67.195 66.174)" overflow="visible"/><use xlink:href="#Dot" width="55" height="55" id="XMLID_182_" x="-27.5" y="-27.5" transform="matrix(.07845 0 0 -.07842 67.603 66.237)" overflow="visible"/><use xlink:href="#Dot" width="55" height="55" id="XMLID_179_" x="-27.5" y="-27.5" transform="matrix(.07845 0 0 -.07842 67.04 65.845)" overflow="visible"/></svg>